<svg xmlns="http://www.w3.org/2000/svg" width="96" height="96" viewBox="-19 0 292 292"><path fill="#1b1b18" d="m214.983 193.265-6.368-.001a93.625 93.625 0 0 0 5.217-30.832v-2.867h1.151c9.29 0 16.848 7.558 16.848 16.849 0 9.29-7.558 16.85-16.848 16.85m-95.207 40.326c-39.237 0-71.16-31.921-71.16-71.158v-25.57h142.32v25.57c0 18.263-6.922 34.937-18.273 47.548-13.035 14.484-31.912 23.61-52.886 23.61m95.207-97.2h-1.151v-10.977c0-6.323-5.124-11.448-11.449-11.448H37.17c-6.324 0-11.449 5.125-11.449 11.448v37.02c0 51.863 42.193 94.055 94.055 94.055 31.776 0 59.9-15.854 76.936-40.05h18.271c22.07 0 40.022-17.956 40.022-40.024 0-22.07-17.952-40.024-40.022-40.024m-89.267-75.45h-14.411V46.53a8.597 8.597 0 1 0-17.194 0v14.41H79.699a8.598 8.598 0 0 0 0 17.195h14.412v14.411a8.597 8.597 0 1 0 17.194 0v-14.41h14.411a8.599 8.599 0 0 0 0-17.195m49.423-37.932h-14.41V8.597a8.599 8.599 0 0 0-17.196 0V23.01h-14.41a8.597 8.597 0 1 0 0 17.194h14.41v14.411a8.598 8.598 0 0 0 17.196 0V40.203h14.41a8.598 8.598 0 1 0 0-17.194M119.776 268.905H11.448C5.125 268.905 0 263.78 0 257.456c0-6.324 5.125-11.448 11.448-11.448H119.776z"/><style>@media (prefers-color-scheme:dark){:root{filter:none}}</style></svg>
